inDegrees=no
num_controls=7
num_derivatives=13
num_iterations=101
num_multipliers=7
num_parameters=0
num_slacks=7
num_states=26
objective=4.213178
objective_accelerations=0.657292
objective_balance=0.040892
objective_effort=0.650006
objective_height=2.811251
objective_ligament=0.053738
solver_duration=1010.137993
status=Solve_Succeeded
success=true
DataType=double
version=3
OpenSimVersion=4.4-2022-07-23-0e9fedc
endheader
time	/jointset/ground_pelvis/pelvis_tilt/value	/jointset/ground_pelvis/pelvis_tx/value	/jointset/ground_pelvis/pelvis_ty/value	/jointset/hip_l/hip_flexion_l/value	/jointset/hip_l/hip_adduction_l/value	/jointset/hip_l/hip_rotation_l/value	/jointset/back/lumbar_extension/value	/jointset/patellofemoral_l/patellar_flexion_l/value	/jointset/knee_l/knee_flexion_l/value	/jointset/knee_l/knee_adduction_l/value	/jointset/knee_l/knee_rotation_l/value	/jointset/ankle_l/ankle_angle_l/value	/jointset/subtalar_l/subtalar_angle_l/value	/jointset/ground_pelvis/pelvis_tilt/speed	/jointset/ground_pelvis/pelvis_tx/speed	/jointset/ground_pelvis/pelvis_ty/speed	/jointset/hip_l/hip_flexion_l/speed	/jointset/hip_l/hip_adduction_l/speed	/jointset/hip_l/hip_rotation_l/speed	/jointset/back/lumbar_extension/speed	/jointset/patellofemoral_l/patellar_flexion_l/speed	/jointset/knee_l/knee_flexion_l/speed	/jointset/knee_l/knee_adduction_l/speed	/jointset/knee_l/knee_rotation_l/speed	/jointset/ankle_l/ankle_angle_l/speed	/jointset/subtalar_l/subtalar_angle_l/speed	/forceset/tau_hip_flexion_l	/forceset/tau_hip_adduction_l	/forceset/tau_hip_rotation_l	/forceset/tau_knee_flexion_l	/forceset/tau_ankle_angle_l	/forceset/tau_subtalar_angle_l	/forceset/tau_lumbar_extension	lambda_cid13_p0	lambda_cid13_p1	lambda_cid13_p2	lambda_cid13_p3	lambda_cid13_p4	lambda_cid13_p5	lambda_cid14_p0	/jointset/ground_pelvis/pelvis_tilt/accel	/jointset/ground_pelvis/pelvis_tx/accel	/jointset/ground_pelvis/pelvis_ty/accel	/jointset/hip_l/hip_flexion_l/accel	/jointset/hip_l/hip_adduction_l/accel	/jointset/hip_l/hip_rotation_l/accel	/jointset/back/lumbar_extension/accel	/jointset/patellofemoral_l/patellar_flexion_l/accel	/jointset/knee_l/knee_flexion_l/accel	/jointset/knee_l/knee_adduction_l/accel	/jointset/knee_l/knee_rotation_l/accel	/jointset/ankle_l/ankle_angle_l/accel	/jointset/subtalar_l/subtalar_angle_l/accel	gamma_cid13_p0	gamma_cid13_p1	gamma_cid13_p2	gamma_cid13_p3	gamma_cid13_p4	gamma_cid13_p5	gamma_cid14_p0
1.5	-0.04578147858271791	-0.04521376318118461	0.75678705539714	1.055319545430664	-0.3089552042338745	-0.08277296863841467	-0.8200300879450385	1.166897799741666	1.166897799741806	0.02483645424796204	-0.1745271493607262	0.2503586771028275	0.07993466341496432	0.3718296100131483	0.2369458107904168	0.869982949820442	-3.012758625854166	0.0533836014616625	-0.6411621452939732	0.7878188056665959	-3.02016376235343	-3.02016376235343	-0.4744871339368469	-0.0001460210498801629	-0.5676367234004013	-0.1765669118085731	-0.2387270425563785	0.01867318434550991	-0.01773704966453444	-0.2992022470010243	0.08709737649453415	0.04472274702430715	0.3063611116215938	-11.63618309112343	-15.56160406325023	-0.05689284985312081	-16.85309414198786	-647.2264169351155	-66.62215487655273	-1.554893216645534	1.050080402499514	1.180977416660136	-1.139109082162073	-1.096110273071905	0.3518926828550211	-0.6732779594433068	2.401516677980117	-1.74346317184238	-1.743463171842369	-0.250610453396773	0.08474624467722912	-1.812413803092945	-0.2065490054128558	5.654444621454795e-07	4.073791851435453e-06	-1.246686035565994e-06	4.9480777760149e-07	6.917004335681293e-07	7.194066132581356e-07	6.865663456588469e-07
1.51	-0.04201144532952767	-0.0427854278293593	0.765427986017256	1.025139643544201	-0.3084059301764366	-0.08921996063526683	-0.8120329737770745	1.136612334623818	1.13661233462383	0.02007731069864125	-0.1745287590592406	0.2445928676480739	0.07815654502181417	0.3820526955809365	0.2486975079961301	0.8580004329594529	-3.02286529999682	0.05647053935945279	-0.6482202655696742	0.8115387785104503	-3.036525557666575	-3.036525557666576	-0.4773268454291565	-0.0001629066663622016	-0.5853370950454124	-0.178961479733776	-0.2294069510043382	0.01862841418569183	-0.01703325002401875	-0.2912731045896492	0.08693156913456554	0.0445376215788058	0.2968393392395768	-11.14280469486972	-15.76476439330447	0.2007158495534232	-16.84046764053847	-638.0931301278988	-66.47705488965417	-2.219374669101187	0.9898200134746472	1.168803024609553	-1.258079265271864	-0.9144260681346793	0.2868056879950293	-0.7189057557227071	2.347450175158769	-1.522128881766561	-1.522128881766792	-0.2976702795285817	-0.0431542929537795	-1.720416571086088	-0.2421831472203792	6.050308775207073e-07	4.371252100937689e-06	-1.307451164043507e-06	4.978680073512372e-07	7.463788068770761e-07	9.086417910545661e-07	7.175527933831725e-07
1.52	-0.0381429017447474	-0.04024026807506009	0.7739430402133213	0.9948693788996609	-0.3078258444710696	-0.09573689917369521	-0.8038006173631577	1.106175333318699	1.106175333318575	0.01529036627790031	-0.174530187279563	0.2386557409316938	0.07635722645718268	0.391531676330966	0.2603106912851948	0.8448076650102512	-3.030831177470372	0.05954593104740573	-0.6551514536089401	0.8348672548571235	-3.050470999808363	-3.050470999808366	-0.4800473082166877	-0.0001097254085563869	-0.6019001757256602	-0.180806946104834	-0.2200868594522908	0.01858364402587053	-0.01632945038359966	-0.2833439621782814	0.08676576177459332	0.04435249613330045	0.2873175668575671	-10.64502745935009	-15.98365876596798	0.4779252450026317	-16.89947182744148	-628.9085989590177	-66.42969229886546	-2.993124205991745	0.9012594389477241	1.153274633330394	-1.381159299804625	-0.6679509392512296	0.3495834408876696	-0.6478915121561779	2.323217378543825	-1.260192537570993	-1.260192537570994	-0.2267607124410576	0.09875961953504288	-1.584955610140266	-0.09672869458375381	6.419059991524434e-07	4.721364342996933e-06	-1.318691133424735e-06	5.09946654019289e-07	8.05048960979774e-07	1.124171897104358e-06	7.486753597275356e-07
1.53	-0.03418324298229058	-0.03757977874645566	0.78232028025848	0.9645299554702695	-0.30721519633098	-0.1023230045637873	-0.7953373321853722	1.07561094834159	1.075610948341688	0.01047674704315286	-0.1745312164039041	0.2325587244341339	0.07454204175483793	0.4002680213690892	0.2717515354008475	0.8304499511872635	-3.036682478771648	0.06258081251046253	-0.6620394443503392	0.8576993111119011	-3.061981622518192	-3.06198162251819	-0.4826785701707843	-8.357550517375508e-05	-0.6173030072486274	-0.1821382261001546	-0.210673589457641	0.01821656571665622	-0.01566343801038856	-0.2758848705736419	0.08669239809497185	0.04393312992110741	0.2777042802798745	-10.16477207330472	-16.08849531940696	0.726374681598005	-16.7944672973215	-620.1319356063127	-66.2533257014862	-3.87346266867481	0.8400566738296976	1.134252086129307	-1.49145602063826	-0.4880183020955626	0.2797146235759406	-0.7038887176055602	2.249629310666607	-1.033000509787863	-1.033000509787088	-0.2807286276321354	-0.04375544230451882	-1.487672719071721	-0.1382688559519308	6.759003711817195e-07	5.127419327147998e-06	-1.277310621266159e-06	5.316073686630395e-07	8.679603821758322e-07	1.367640364423347e-06	7.799425521056887e-07
1.54	-0.03014017384193438	-0.03480592841960514	0.7905482674459899	0.9341431593125618	-0.3065743445513471	-0.1089769170337926	-0.7866484405326946	1.044944156462971	1.044944156463273	0.00563693125068294	-0.1745316436528765	0.2263137344622044	0.07271615601175078	0.4082137519106097	0.2829828909344134	0.8149570934805312	-3.040305723134118	0.06558665895597414	-0.6687128695906871	0.8799885498355469	-3.070952380111986	-3.070952380111979	-0.4852866197544091	1.064967643082967e-05	-0.6314948705994673	-0.1829471542533061	-0.2012603194629893	0.01784948740742788	-0.01499742563736932	-0.268425778969016	0.08661903441534433	0.04351376370889722	0.2680909937021874	-9.676112689744325	-16.21074434244448	0.9958084244750413	-16.77167249306203	-611.2505689085641	-66.17568626649719	-4.859367423734832	0.7431365396270896	1.111376916913044	-1.608188076553565	-0.2223395514901367	0.3437764373787064	-0.6049784119458689	2.214653872317407	-0.7522195143641134	-0.7522195143641143	-0.222118238346673	0.1123746751795598	-1.342761975714812	0.007741673850142112	6.999900606798581e-07	5.524875826784706e-06	-1.200285640767591e-06	5.602355633060635e-07	9.214274460604637e-07	1.605949635505103e-06	8.062755692276339e-07
1.55	-0.02602154531043478	-0.03192092967068739	0.798615833040492	0.9037311115390501	-0.3059036325044563	-0.1156974232878222	-0.7777396730716749	1.014200343335572	1.014200343335754	0.0007715670416936877	-0.1745314186055947	0.2199329254857891	0.07088474438842812	0.4153777333458723	0.2939684307870588	0.7983815623462969	-3.041722522500875	0.06855148882772077	-0.6753793924119329	0.90165217235324	-3.077369009227311	-3.077369009227291	-0.4877741756616093	2.528211346849974e-05	-0.6444576546411174	-0.1832466967341247	-0.1919971476739933	0.01724202475060417	-0.01440166561467938	-0.2613588599500812	0.08639548467409451	0.04285753777266806	0.2586095379860743	-9.297592730868184	-16.20576389395312	1.239159883884295	-16.51649177796743	-603.0056381211135	-65.95221651047974	-5.948378313139293	0.6829296259697103	1.085001761313946	-1.708207558600301	-0.04411611532681548	0.2717730578724848	-0.6952755235290945	2.125300939153436	-0.520366867961724	-0.5203668679596822	-0.2592732098039487	-0.05548208183954667	-1.241359682733325	-0.03639033722678009	7.12667833348643e-07	5.912425376872262e-06	-1.082192033703382e-06	5.968915066439022e-07	9.640129678254081e-07	1.838314615270045e-06	8.269235583369919e-07
1.56	-0.02183529682848287	-0.02892750367486822	0.806512448938303	0.873316342574663	-0.305203484799688	-0.1224841520313257	-0.7686176524859468	0.9834055674654584	0.983405567465501	-0.00411811251498004	-0.1745313451559743	0.213428824056089	0.06905281971466146	0.421737742000883	0.304668340314699	0.7807671541423243	-3.04084996130997	0.07147379053145837	-0.6819573674857834	0.9226391747772525	-3.081144928656443	-3.08114492865641	-0.4901496892846996	-1.96698417140975e-05	-0.6561533612564977	-0.1830497643421022	-0.1827339758849837	0.01663456209379045	-0.01380590559217273	-0.2542919409311569	0.08617193493284372	0.04220131183645431	0.2491280822699735	-8.908845408671322	-16.21943934704233	1.504749117396952	-16.34690991250155	-594.6325976637431	-65.82910605145501	-7.13442805475543	0.5823419835766467	1.054250851912031	-1.815963490501223	0.2355325600424479	0.3352708037768954	-0.5872688624668712	2.079329853581211	-0.2240775771256022	-0.2240775771256147	-0.1997097815246909	0.1004577967354184	-1.089346490460868	0.1070366484183043	7.106612999091571e-07	6.018352945704757e-06	-1.053733528949673e-06	5.975440338281247e-07	9.82733685940027e-07	1.954191049305883e-06	8.257143703687289e-07
1.57	-0.01758957591409775	-0.02582864672083831	0.8142278866330788	0.8429219701116388	-0.3044740193812057	-0.1293358457931879	-0.7592893123414923	0.9525864168338568	0.9525864168338334	-0.009030954179668966	-0.1745313815820506	0.2068142013880448	0.0672257513815171	0.4272680995617779	0.315039820782053	0.7621642480472384	-3.037625455405859	0.07441727985109226	-0.6883689429253536	0.9428877992889823	-3.082227791400272	-3.082227791400248	-0.4924000131458789	1.267915053214136e-06	-0.6665575512010707	-0.1822771271403298	-0.1735844478958744	0.0158464882304992	-0.01328876932848611	-0.2477108718739919	0.08588034351963977	0.04126429254011624	0.2397661207794624	-8.611777903948191	-16.0879149409637	1.738966959164705	-15.93901205490792	-586.9802856488985	-65.53895410816763	-8.407187962298234	0.5176604637952347	1.019217719073156	-1.905681638561865	0.4258050389226424	0.2732008643836897	-0.6654411086700709	1.976470526195259	0.01806416548981301	0.01806416548854196	-0.2339975898748146	-0.04893439982702542	-0.9836556479285724	0.07463403931842931	6.902993838343329e-07	5.772253037968428e-06	-1.137318902084088e-06	5.531922908203275e-07	9.716233994917393e-07	1.924456801180342e-06	7.971837110534398e-07
